<?xml version="1.0" encoding="UTF-8"?>
<svg version="1.1" xmlns="http://www.w3.org/2000/svg" width="400" height="400">
<path d="M0 0 C132 0 264 0 400 0 C400 132 400 264 400 400 C268 400 136 400 0 400 C0 268 0 136 0 0 Z " fill="#7FD3D8" transform="translate(0,0)"/>
<path d="M0 0 C7.00426148 5.05103048 11.17943521 10.71243725 14.9765625 18.4453125 C15.49454659 19.49156799 15.49454659 19.49156799 16.022995 20.55895996 C19.57510619 27.80091615 22.86594228 35.15443702 26.09741211 42.54394531 C27.07511446 44.77883488 28.05958017 47.01065692 29.04492188 49.2421875 C29.6826831 50.69253627 30.32006703 52.14305102 30.95703125 53.59375 C31.24455765 54.24597534 31.53208405 54.89820068 31.82832336 55.57019043 C36.45138203 66.16366366 39.47142827 76.28495018 36.59375 87.8984375 C35.6422094 90.17065082 34.55457641 92.15967007 33.25 94.25 C32.64800781 95.23484375 32.04601562 96.2196875 31.42578125 97.234375 C29.73748712 99.93290599 28.01330763 102.60008545 26.25 105.25 C37.85283201 99.93631366 46.31349653 88.12467602 52.25 77.25 C52.60707031 76.62867188 52.96414063 76.00734375 53.33203125 75.3671875 C59.0539603 64.83519061 61.91417841 53.07301795 63.25 41.25 C63.91 41.58 64.57 41.91 65.25 42.25 C65.89172725 72.02285359 65.89172725 72.02285359 62.25 86.25 C62.05664062 87.03391113 61.86328125 87.81782227 61.6640625 88.62548828 C57.47854681 105.18346584 50.9563962 120.56807078 39.25 133.25 C38.37859375 134.21292969 37.5071875 135.17585937 36.609375 136.16796875 C21.4024317 152.46223445 1.67038504 161.75185239 -19.75 167.25 C-20.68126709 167.4967749 -20.68126709 167.4967749 -21.63134766 167.74853516 C-37.70449896 171.9081404 -54.25635879 172.92403162 -70.75 174.25 C-71.81698849 176.7898631 -72.87928117 179.33148093 -73.9375 181.875 C-74.25920166 182.64537598 -74.58090332 183.41575195 -74.91235352 184.20947266 C-76.87758994 188.96782648 -78.59910323 193.72925654 -80.1875 198.625 C-82.59269875 205.47903042 -86.0714159 210.73189427 -90.75 216.25 C-91.36746094 216.99121094 -91.98492187 217.73242188 -92.62109375 218.49609375 C-100.20951439 226.84177882 -110.77331328 231.54907768 -121.97816467 232.42398071 C-124.22910871 232.47852643 -126.47128609 232.47577598 -128.72265625 232.4453125 C-129.53117538 232.4424826 -130.33969452 232.43965271 -131.17271423 232.43673706 C-133.71946918 232.42566777 -136.2658539 232.40058958 -138.8125 232.375 C-140.55403133 232.36495302 -142.29556825 232.3558302 -144.03710938 232.34765625 C-148.27487917 232.32577213 -152.51237713 232.29133646 -156.75 232.25 C-154.80175717 226.03709964 -152.49005439 220.11051663 -149.80078125 214.18359375 C-149.42447067 213.34643326 -149.0481601 212.50927277 -148.66044617 211.64674377 C-147.86664365 209.88357965 -147.07069795 208.12137899 -146.27270508 206.36010742 C-145.07773373 203.72114205 -143.89088302 201.07864164 -142.70507812 198.43554688 C-139.06073841 190.34054975 -135.35299295 182.28061221 -131.421875 174.3203125 C-131.1103096 173.68254379 -130.7987442 173.04477509 -130.47773743 172.38768005 C-127.62208146 166.68840799 -124.02985506 161.94121128 -119.75 157.25 C-119.23308594 156.6415625 -118.71617188 156.033125 -118.18359375 155.40625 C-99.16478503 134.4331276 -69.15076368 131.46302265 -42.75 128.8125 C-28.29258328 127.34935615 -14.48446726 125.05016331 -0.75 120.25 C-1.07102696 114.36450574 -2.3770448 110.78279422 -5.375 105.7578125 C-6.86317817 103.04357846 -7.93037755 100.34182208 -9 97.4375 C-18.99283396 69.15497301 -18.99283396 69.15497301 -40.4375 49.875 C-49.82929436 46.50759416 -58.13014875 47.5983193 -67.05859375 51.77734375 C-74.81151451 56.01950794 -78.58954828 61.53868656 -82.75 69.25 C-83.08 68.59 -83.41 67.93 -83.75 67.25 C-82.95601561 65.12353872 -82.05078596 63.03841207 -81.1015625 60.9765625 C-80.66969131 60.02922241 -80.66969131 60.02922241 -80.22909546 59.06274414 C-79.2852047 56.99664375 -78.33036255 54.93581783 -77.375 52.875 C-76.7245567 51.45914469 -76.07481918 50.04296494 -75.42578125 48.62646484 C-74.45145986 46.50049814 -73.4764946 44.37485254 -72.49835205 42.25064087 C-70.63616669 38.20361075 -68.80826459 34.14445298 -67.0234375 30.0625 C-66.4363501 28.72517822 -66.4363501 28.72517822 -65.83740234 27.36083984 C-65.14153581 25.77006458 -64.45121505 24.1768446 -63.76806641 22.58056641 C-57.93090273 9.34628167 -49.34006225 -0.28111485 -35.75 -5.75 C-23.73068989 -9.77363171 -10.38114843 -6.38571483 0 0 Z " fill="#E8F6F6" transform="translate(223.75,87.75)"/>
<path d="M0 0 C11.08976904 7.75189448 16.5547783 19.48371299 21.6875 31.625 C22.6080424 33.76303397 23.5286148 35.90105503 24.44921875 38.0390625 C25.09914795 39.56080078 25.09914795 39.56080078 25.76220703 41.11328125 C28.69921745 47.96282981 31.79255003 54.71718138 35.046875 61.421875 C36.05043719 64.13642846 36.18572138 66.13163644 36 69 C20.34773668 76.56458999 2.10878572 77.7960069 -14.9375 79.5625 C-42.56499387 82.43991696 -68.40432242 88.23436153 -87.0859375 110.484375 C-88.45090476 112.29151476 -89.76170065 114.10453302 -91 116 C-91.33 115.34 -91.66 114.68 -92 114 C-91.08526348 111.55047711 -90.10337075 109.21825335 -89.01953125 106.84375 C-88.69574493 106.11852142 -88.37195862 105.39329285 -88.0383606 104.64608765 C-86.9707485 102.26053054 -85.89178048 99.88029807 -84.8125 97.5 C-84.06853498 95.84416282 -83.32513059 94.18807365 -82.58227539 92.53173828 C-77.97271035 82.27384356 -73.28721697 72.0517192 -68.53076172 61.86108398 C-65.61640855 55.5912141 -62.79491026 49.2865417 -60.03125 42.94921875 C-59.52145348 41.78244598 -59.52145348 41.78244598 -59.00135803 40.59210205 C-57.32004852 36.74171094 -55.64690652 32.88808043 -53.98608398 29.02880859 C-53.37509203 27.62456359 -52.76385708 26.22042428 -52.15234375 24.81640625 C-51.877854 24.17080246 -51.60336426 23.52519867 -51.32055664 22.86003113 C-49.92659222 19.678495 -48.63197775 17.28327316 -46 15 C-45.08119554 13.57707274 -44.18689339 12.13814118 -43.3125 10.6875 C-33.80747307 -3.69848671 -15.11812803 -8.77746578 0 0 Z " fill="#BAE3EA" transform="translate(188,139)"/>
<path d="M0 0 C3.07903932 3.07903932 3.93692132 7.00223956 5.390625 11.0546875 C7.10181102 15.50437156 9.32601354 19.69402344 11.47851562 23.94238281 C13.68429924 28.37518672 15.65966147 32.89417729 17.625 37.4375 C18.5654038 39.59288557 19.5069107 41.74779002 20.44921875 43.90234375 C20.71076248 44.50078094 20.97230621 45.09921814 21.24177551 45.71578979 C25.5955295 55.66361369 30.02402999 65.57857579 34.4375 75.5 C35.32310197 77.49144505 36.20868181 79.48289995 37.09423828 81.47436523 C38.69073534 85.06440787 40.28748856 88.65433634 41.88452148 92.24414062 C42.23336395 93.03216064 42.58220642 93.82018066 42.94161987 94.63208008 C43.67014945 96.26202348 44.41072142 97.88662026 45.16116333 99.5065918 C45.71185989 100.70505737 45.71185989 100.70505737 46.27368164 101.92773438 C46.60541885 102.63941772 46.93715607 103.35110107 47.27894592 104.08435059 C48 106 48 106 48 109 C42.84465015 109.12524209 37.69021915 109.2150975 32.53369141 109.2746582 C30.78613833 109.29953155 29.03868622 109.33344341 27.29150391 109.37719727 C10.37798688 109.78960373 -2.93915578 106.98173746 -15.921875 95.265625 C-26.72622021 84.07882509 -31.69303038 66.77185618 -36.94555664 52.43017578 C-37.917492 49.79126783 -38.88619937 47.22079591 -40.17578125 44.71875 C-41 43 -41 43 -41 40 C-37.91190305 38.23537317 -36.76687864 38 -33 38 C-33 37.34 -33 36.68 -33 36 C-31.34765625 34.73828125 -31.34765625 34.73828125 -29.0625 33.3125 C-25.65333809 31.10973978 -22.35163953 28.83869028 -19.125 26.375 C-18.40570313 25.82585937 -17.68640625 25.27671875 -16.9453125 24.7109375 C-14.91253356 23.04479666 -14.91253356 23.04479666 -13.3671875 20.7890625 C-12.91601562 20.19867188 -12.46484375 19.60828125 -12 19 C-11.34 19 -10.68 19 -10 19 C-9.731875 18.27941406 -9.46375 17.55882812 -9.1875 16.81640625 C-7.9998639 13.99967722 -6.60600761 11.53521731 -5 8.9375 C-3.19462309 6.00827597 -1.49037371 3.1025568 0 0 Z " fill="#E3F4F2" transform="translate(285,211)"/>
<path d="M0 0 C-0.44730469 1.13695312 -0.89460938 2.27390625 -1.35546875 3.4453125 C-1.9662715 5.00515913 -2.57693869 6.56505885 -3.1875 8.125 C-3.67005249 9.35101929 -3.67005249 9.35101929 -4.16235352 10.60180664 C-5.62756572 14.35168214 -7.06397593 18.09242275 -8.296875 21.92578125 C-10.96492869 30.14009724 -14.40975022 36.40663998 -20 43 C-20.61746094 43.74121094 -21.23492187 44.48242188 -21.87109375 45.24609375 C-29.45951439 53.59177882 -40.02331328 58.29907768 -51.22816467 59.17398071 C-53.47910871 59.22852643 -55.72128609 59.22577598 -57.97265625 59.1953125 C-59.18543495 59.19106766 -59.18543495 59.19106766 -60.42271423 59.18673706 C-62.96946918 59.17566777 -65.5158539 59.15058958 -68.0625 59.125 C-69.80403133 59.11495302 -71.54556825 59.1058302 -73.28710938 59.09765625 C-77.52487917 59.07577213 -81.76237713 59.04133646 -86 59 C-82.73171212 49.02419228 -82.73171212 49.02419228 -81.0625 45.0625 C-80.76472656 44.33160156 -80.46695313 43.60070312 -80.16015625 42.84765625 C-78.72931066 40.56890217 -77.39692737 40.13899793 -75 39 C-73.49085346 37.34026304 -73.49085346 37.34026304 -72.1875 35.375 C-56.82175545 14.2137389 -35.26751669 5.12425971 -10.1875 0.6875 C-6.7500907 0.14683966 -3.47950186 -0.06871548 0 0 Z " fill="#D3EEEF" transform="translate(153,261)"/>
<path d="M0 0 C3.23536163 2.91707991 4.94837885 5.54919308 6.65625 9.54296875 C7.12160156 10.61740234 7.58695313 11.69183594 8.06640625 12.79882812 C8.53949219 13.91708984 9.01257813 15.03535156 9.5 16.1875 C10.44788703 18.38933568 11.3958032 20.59115881 12.34375 22.79296875 C12.79588867 23.8514502 13.24802734 24.90993164 13.71386719 26.00048828 C16.66705327 32.88789227 19.77456586 39.68012967 23.046875 46.421875 C24.05043719 49.13642846 24.18572138 51.13163644 24 54 C8.69557695 61.39648209 -11.12930211 64.2595492 -28 64 C-27.31869843 59.00337065 -25.27551207 54.70614849 -23.24609375 50.140625 C-22.86695328 49.27798035 -22.48781281 48.41533569 -22.09718323 47.52655029 C-21.29167934 45.69650876 -20.48375227 43.86753215 -19.67358398 42.03955078 C-18.46119303 39.3034696 -17.25627616 36.56420212 -16.05273438 33.82421875 C-12.27862985 25.25411326 -8.44650348 16.71392546 -4.47265625 8.234375 C-4.13592392 7.51388977 -3.79919159 6.79340454 -3.45225525 6.05108643 C-1.12434982 1.12434982 -1.12434982 1.12434982 0 0 Z " fill="#7FD3D9" transform="translate(200,154)"/>
<path d="M0 0 C0.66 0 1.32 0 2 0 C2.61875 0.94875 3.2375 1.8975 3.875 2.875 C5.87924473 5.82241872 6.74790731 6.83853833 10 8 C10 8.66 10 9.32 10 10 C8.576875 10.928125 8.576875 10.928125 7.125 11.875 C4.17758128 13.87924473 3.16146167 14.74790731 2 18 C1.34 18 0.68 18 0 18 C-0.433125 17.236875 -0.86625 16.47375 -1.3125 15.6875 C-3.20749829 12.66953976 -4.95374309 11.72895662 -8 10 C-8 9.34 -8 8.68 -8 8 C-7.05125 7.38125 -6.1025 6.7625 -5.125 6.125 C-2.17758128 4.12075527 -1.16146167 3.25209269 0 0 Z " fill="#BEF2DA" transform="translate(377,369)"/>
<path d="M0 0 C1.65 0.33 3.3 0.66 5 1 C1.88983545 4.28788824 -1.01618925 6.83735988 -5 9 C-3.7508258 5.54074837 -2.32472205 2.85306797 0 0 Z " fill="#9BDADA" transform="translate(254,186)"/>
</svg>
