<?xml version="1.0" encoding="UTF-8"?>
<svg version="1.1" xmlns="http://www.w3.org/2000/svg" width="500" height="500">
<path d="M0 0 C11.16240953 0.56117032 20.53108764 3.04067818 29.0546875 10.52734375 C30.47559958 12.32532635 30.86244416 13.81778771 31.26171875 16.0546875 C31.92171875 16.0546875 32.58171875 16.0546875 33.26171875 16.0546875 C33.73480469 17.01246094 34.20789063 17.97023437 34.6953125 18.95703125 C39.1214099 27.88167368 43.68930399 36.71888549 48.37890625 45.5078125 C49.71087708 48.00574417 51.01656943 50.51196153 52.26171875 53.0546875 C55.51109844 51.42999765 56.27822428 47.93747022 57.69921875 44.7421875 C60.86369337 37.84044902 64.25827747 31.09933304 67.88671875 24.4296875 C68.32943115 23.60170654 68.77214355 22.77372559 69.22827148 21.9206543 C73.51990341 14.11617468 78.02301929 7.82345427 86.26171875 4.0546875 C86.86757813 3.76722656 87.4734375 3.47976562 88.09765625 3.18359375 C93.53902331 0.86268413 99.34404917 -0.1460735 105.26171875 0.0546875 C106.25171875 0.7146875 107.24171875 1.3746875 108.26171875 2.0546875 C108.07609375 3.385 108.07609375 3.385 107.88671875 4.7421875 C107.79690231 5.38658783 107.70708588 6.03098816 107.61454773 6.69491577 C107.35683866 8.41851163 107.07291521 10.13824588 106.77375793 11.85513306 C105.44313288 19.71285828 104.95453133 27.30434286 104.9609375 35.265625 C104.95450981 37.08243271 104.95450981 37.08243271 104.94795227 38.9359436 C104.94225086 41.4787738 104.94167746 44.02162029 104.94604492 46.56445312 C104.94920509 50.41304864 104.92569032 54.26087407 104.90039062 58.109375 C104.86926824 70.46886615 105.04155586 82.07775567 108.26171875 94.0546875 C108.60680602 95.71896021 108.94438625 97.3849004 109.26171875 99.0546875 C94.9858222 99.6265706 94.9858222 99.6265706 90.26171875 96.0546875 C79.92400293 86.36777219 81.21662649 72.09077213 80.69921875 58.8671875 C80.65603516 57.81982422 80.61285156 56.77246094 80.56835938 55.69335938 C80.46372366 53.14722353 80.36154329 50.60101572 80.26171875 48.0546875 C79.86082031 48.86808594 79.45992188 49.68148437 79.046875 50.51953125 C75.22020549 58.23361106 71.27752071 65.87237029 67.19555664 73.45483398 C65.67494091 76.29569491 64.28283246 78.99134637 63.26171875 82.0546875 C62.60171875 82.0546875 61.94171875 82.0546875 61.26171875 82.0546875 C61.26171875 82.7146875 61.26171875 83.3746875 61.26171875 84.0546875 C54.3768165 84.62842935 50.23503998 83.5300744 44.26171875 80.0546875 C44.26171875 79.3946875 44.26171875 78.7346875 44.26171875 78.0546875 C43.68164062 77.84585938 43.1015625 77.63703125 42.50390625 77.421875 C39.41518002 75.53850535 38.23559134 73.2759922 36.38671875 70.1796875 C36.04374756 69.60831055 35.70077637 69.03693359 35.34741211 68.44824219 C32.44021311 63.53242069 29.86337765 58.46795017 27.390625 53.3203125 C26.45491729 51.14204041 26.45491729 51.14204041 25.26171875 50.0546875 C25.21684326 51.01246094 25.17196777 51.97023437 25.12573242 52.95703125 C24.95422986 56.54353694 24.76559108 60.12897873 24.57202148 63.71435547 C24.49091688 65.26001904 24.41433121 66.80592714 24.3425293 68.35205078 C23.60205435 84.172681 23.60205435 84.172681 20.26171875 91.0546875 C19.60171875 91.0546875 18.94171875 91.0546875 18.26171875 91.0546875 C18.01550781 91.66828125 17.76929688 92.281875 17.515625 92.9140625 C15.2772734 96.73529825 11.36922203 97.83764949 7.26171875 99.0546875 C4.16671243 99.35300136 1.38137139 99.25276068 -1.73828125 99.0546875 C-2.99739668 95.27734121 -2.25896618 93.58653921 -1.3203125 89.72265625 C1.14211857 78.07980125 0.67315913 66.19471206 0.59790039 54.35424805 C0.58207808 51.69039054 0.57276092 49.02778327 0.57739258 46.36401367 C0.58385744 42.46522034 0.57583098 38.56674036 0.5625 34.66796875 C0.56341141 33.49470535 0.56432281 32.32144196 0.56526184 31.11262512 C0.47885591 20.88208039 -0.55980443 10.81715203 -3.73828125 1.0546875 C-2.73828125 0.0546875 -2.73828125 0.0546875 0 0 Z " fill="#E6EAEE" transform="translate(343.73828125,199.9453125)"/>
<path d="M0 0 C2.26702276 0.00313158 4.53270142 -0.02022835 6.79956055 -0.0456543 C18.03893842 -0.09512325 30.18017588 0.27122403 39.59448242 7.17504883 C46.49513935 14.07570576 51.83211659 22.72847703 51.92260742 32.62817383 C51.779972 41.2718805 48.75943309 47.81998328 44.73510742 55.31567383 C44.07510742 55.31567383 43.41510742 55.31567383 42.73510742 55.31567383 C42.50823242 55.91379883 42.28135742 56.51192383 42.04760742 57.12817383 C40.379017 59.90915786 38.60672423 60.87986543 35.73510742 62.31567383 C35.07510742 62.31567383 34.41510742 62.31567383 33.73510742 62.31567383 C42.29073551 76.19470801 42.29073551 76.19470801 52.95385742 88.46411133 C54.73510742 90.31567383 54.73510742 90.31567383 54.92260742 92.31567383 C52.95763496 95.62510113 50.25949539 97.08710196 46.73510742 98.31567383 C40.88442319 99.35540386 36.10426816 99.01431496 30.98510742 95.87817383 C22.89426568 89.69527881 17.90144643 80.65293518 12.55541992 72.15942383 C11.00595487 69.51507756 11.00595487 69.51507756 9.73510742 68.31567383 C7.55217968 68.0808569 5.36307568 67.9020406 3.17260742 67.75317383 C1.37629883 67.62749023 1.37629883 67.62749023 -0.45629883 67.49926758 C-1.38313477 67.43868164 -2.3099707 67.3780957 -3.26489258 67.31567383 C-3.30227539 68.30567383 -3.3396582 69.29567383 -3.37817383 70.31567383 C-3.71116515 77.44746353 -4.18706291 83.75855846 -7.26489258 90.31567383 C-7.92489258 90.31567383 -8.58489258 90.31567383 -9.26489258 90.31567383 C-9.26489258 90.97567383 -9.26489258 91.63567383 -9.26489258 92.31567383 C-9.92489258 92.31567383 -10.58489258 92.31567383 -11.26489258 92.31567383 C-11.26489258 92.97567383 -11.26489258 93.63567383 -11.26489258 94.31567383 C-20.49040511 98.90792895 -20.49040511 98.90792895 -26.26489258 98.31567383 C-28.47851989 93.88841921 -27.68636289 88.08603116 -27.82739258 83.19067383 C-27.85766541 82.17322586 -27.85766541 82.17322586 -27.8885498 81.13522339 C-28.2629115 68.12652956 -28.42954334 55.1133128 -28.49606323 42.09967041 C-28.50855735 39.96206191 -28.52602709 37.82447636 -28.5486145 35.68695068 C-28.57867721 32.64768462 -28.58841322 29.60897869 -28.59301758 26.56958008 C-28.6114698 25.21651009 -28.6114698 25.21651009 -28.6302948 23.83610535 C-28.60533262 16.58937624 -27.51252527 10.17077481 -22.95239258 4.37817383 C-16.14841795 -0.84348112 -8.15953188 -0.02352454 0 0 Z M-3.26489258 20.31567383 C-4.20173496 29.29932314 -4.6704699 38.28561414 -4.26489258 47.31567383 C-2.20153205 49.37903436 2.02726808 48.50080523 4.86010742 48.50317383 C5.9815918 48.52154297 5.9815918 48.52154297 7.12573242 48.5402832 C14.3472612 48.55915479 20.37738948 47.52031411 25.73510742 42.31567383 C27.50203369 39.39747505 28.00837944 37.21338882 27.98510742 33.81567383 C27.99026367 33.06286133 27.99541992 32.31004883 28.00073242 31.53442383 C27.70761147 29.08600173 26.95327511 27.44263329 25.73510742 25.31567383 C25.07510742 25.31567383 24.41510742 25.31567383 23.73510742 25.31567383 C23.73510742 24.65567383 23.73510742 23.99567383 23.73510742 23.31567383 C18.15034674 19.73352935 13.25253489 19.95926822 6.86010742 20.12817383 C5.39831055 20.14847656 5.39831055 20.14847656 3.90698242 20.16918945 C1.51577879 20.20435421 -0.87426233 20.25356713 -3.26489258 20.31567383 Z " fill="#E4E9ED" transform="translate(235.264892578125,200.684326171875)"/>
<path d="M0 0 C6.62426581 4.6215808 9.42361414 10.95466603 12.5 18.1875 C12.90669922 19.08662109 13.31339844 19.98574219 13.73242188 20.91210938 C16.29746686 26.87422233 17.13029343 31.39171113 16.6875 37.875 C20.37155866 34.69474423 21.80008392 31.673378 23.4375 27.125 C23.86546875 25.95453125 24.2934375 24.7840625 24.734375 23.578125 C25.04890625 22.68609375 25.3634375 21.7940625 25.6875 20.875 C26.3475 20.875 27.0075 20.875 27.6875 20.875 C28.29230249 34.76305728 26.40820612 45.72986521 17.6875 56.875 C9.21643515 66.08777099 -2.65180786 70.72022229 -14.91113281 71.49316406 C-19.19384727 71.81465036 -23.33002933 72.18247349 -27.3125 73.875 C-29.9550144 77.31774338 -30.95552124 80.25778212 -32.1640625 84.40625 C-33.84193805 89.474119 -36.90577688 92.05612448 -41.3125 94.875 C-42.15167969 95.45121094 -42.15167969 95.45121094 -43.0078125 96.0390625 C-46.64057429 97.3567083 -50.23389076 97.0825405 -54.0625 97 C-54.85527344 96.99097656 -55.64804687 96.98195313 -56.46484375 96.97265625 C-58.41419281 96.94917012 -60.36338575 96.91330137 -62.3125 96.875 C-62.72107512 91.68923886 -61.5087185 88.66797722 -59.0625 84.125 C-56.99443138 80.1851366 -54.97106511 76.28488011 -53.375 72.125 C-49.53105701 62.14366904 -44.95849936 52.43892171 -40.48828125 42.7265625 C-40.00367432 41.67355957 -39.51906738 40.62055664 -39.01977539 39.53564453 C-38.07232334 37.48074184 -37.12242367 35.42696528 -36.16967773 33.37451172 C-33.6799968 27.98193984 -31.34497146 22.56318859 -29.17041016 17.03613281 C-26.113932 9.3366608 -23.48964088 3.83336622 -16.125 -0.375 C-10.65342034 -1.83408791 -5.36461045 -1.82194317 0 0 Z M-9.3125 29.875 C-12.6125 37.465 -15.9125 45.055 -19.3125 52.875 C-15.32358475 54.20463842 -12.12787164 53.25905007 -8.125 52.4375 C-7.00061523 52.21610352 -7.00061523 52.21610352 -5.85351562 51.99023438 C-4.00515826 51.62527209 -2.15863839 51.25102589 -0.3125 50.875 C-0.98737737 46.05580529 -2.89215909 41.95616134 -4.875 37.5625 C-5.20435547 36.82193359 -5.53371094 36.08136719 -5.87304688 35.31835938 C-6.68167123 33.50188438 -7.49647116 31.68816069 -8.3125 29.875 C-8.6425 29.875 -8.9725 29.875 -9.3125 29.875 Z " fill="#EBEEF1" transform="translate(110.3125,202.125)"/>
<path d="M0 0 C11.16240953 0.56117032 20.53108764 3.04067818 29.0546875 10.52734375 C30.47559958 12.32532635 30.86244416 13.81778771 31.26171875 16.0546875 C31.92171875 16.0546875 32.58171875 16.0546875 33.26171875 16.0546875 C34.82421875 18.8046875 34.82421875 18.8046875 36.26171875 22.0546875 C36.09027344 22.61929688 35.91882813 23.18390625 35.7421875 23.765625 C34.99860583 27.30821734 36.13923297 30.49033954 37.01171875 33.9296875 C38.73558092 41.08652937 39.87866657 48.18631532 40.76171875 55.4921875 C41.9136428 64.77463574 44.00707944 72.69668495 48.26171875 81.0546875 C46.94171875 80.7246875 45.62171875 80.3946875 44.26171875 80.0546875 C44.26171875 79.3946875 44.26171875 78.7346875 44.26171875 78.0546875 C43.68164062 77.84585938 43.1015625 77.63703125 42.50390625 77.421875 C39.41518002 75.53850535 38.23559134 73.2759922 36.38671875 70.1796875 C36.04374756 69.60831055 35.70077637 69.03693359 35.34741211 68.44824219 C32.44021311 63.53242069 29.86337765 58.46795017 27.390625 53.3203125 C26.45491729 51.14204041 26.45491729 51.14204041 25.26171875 50.0546875 C25.21684326 51.01246094 25.17196777 51.97023437 25.12573242 52.95703125 C24.95422986 56.54353694 24.76559108 60.12897873 24.57202148 63.71435547 C24.49091688 65.26001904 24.41433121 66.80592714 24.3425293 68.35205078 C23.60205435 84.172681 23.60205435 84.172681 20.26171875 91.0546875 C19.60171875 91.0546875 18.94171875 91.0546875 18.26171875 91.0546875 C18.01550781 91.66828125 17.76929688 92.281875 17.515625 92.9140625 C15.2772734 96.73529825 11.36922203 97.83764949 7.26171875 99.0546875 C4.16671243 99.35300136 1.38137139 99.25276068 -1.73828125 99.0546875 C-2.99739668 95.27734121 -2.25896618 93.58653921 -1.3203125 89.72265625 C1.14211857 78.07980125 0.67315913 66.19471206 0.59790039 54.35424805 C0.58207808 51.69039054 0.57276092 49.02778327 0.57739258 46.36401367 C0.58385744 42.46522034 0.57583098 38.56674036 0.5625 34.66796875 C0.56341141 33.49470535 0.56432281 32.32144196 0.56526184 31.11262512 C0.47885591 20.88208039 -0.55980443 10.81715203 -3.73828125 1.0546875 C-2.73828125 0.0546875 -2.73828125 0.0546875 0 0 Z " fill="#EAEEF0" transform="translate(343.73828125,199.9453125)"/>
<path d="M0 0 C0.01030746 0.71996658 0.02061493 1.43993317 0.03123474 2.18171692 C0.12919135 8.96500327 0.23170327 15.74820711 0.33933926 22.53134632 C0.39451576 26.0186684 0.44792726 29.50599895 0.49731445 32.9934082 C0.55416255 37.00220847 0.61867048 41.01085357 0.68359375 45.01953125 C0.70030624 46.27272659 0.71701874 47.52592194 0.73423767 48.8170929 C0.75418289 49.97806992 0.77412811 51.13904694 0.79467773 52.33520508 C0.81799416 53.87075798 0.81799416 53.87075798 0.84178162 55.43733215 C0.89715622 58.12007976 0.89715622 58.12007976 2 61 C2.99282801 71.84570347 2.00646406 79.56127076 -4 89 C-4.66 89 -5.32 89 -6 89 C-6.309375 89.86625 -6.309375 89.86625 -6.625 90.75 C-8.62010184 94.01471209 -10.59028722 95.26414622 -14 97 C-17.03378241 97.31674074 -19.96295955 97.24296324 -23 97 C-24.22358607 94.55282785 -24.14411296 92.92620672 -24.17358398 90.18994141 C-24.18707382 89.18774567 -24.20056366 88.18554993 -24.21446228 87.15298462 C-24.22490067 86.06351532 -24.23533905 84.97404602 -24.24609375 83.8515625 C-24.27906602 81.54296544 -24.31227703 79.23437178 -24.34570312 76.92578125 C-24.39286834 73.28794998 -24.4372266 69.65012898 -24.47680664 66.01220703 C-24.51690717 62.50016931 -24.56839277 58.98843075 -24.62109375 55.4765625 C-24.6295079 54.40733551 -24.63792206 53.33810852 -24.64659119 52.23648071 C-24.74867705 45.89541933 -25.36943146 39.87829461 -26.54530334 33.64413452 C-28.31045485 23.37949332 -25.77151268 14.57481885 -20 6 C-14.52335749 0.43478645 -7.5133267 -4.21005376 0 0 Z " fill="#E3E8EC" transform="translate(327,202)"/>
<path d="M0 0 C0.81317688 0.00535767 1.62635376 0.01071533 2.46417236 0.01623535 C3.08539978 0.02312378 3.7066272 0.03001221 4.34667969 0.03710938 C4.35698715 0.71060928 4.36729462 1.38410919 4.37791443 2.07801819 C4.48628931 9.10247905 4.60086112 16.12681965 4.71899414 23.15112305 C4.76224385 25.77088906 4.80392578 28.39068145 4.84399414 31.01049805 C4.90193841 34.78116802 4.96556306 38.55170644 5.03027344 42.32226562 C5.04698593 43.48919449 5.06369843 44.65612335 5.08091736 45.8584137 C5.18040103 51.34809918 5.41769127 56.62507916 6.34667969 62.03710938 C7.35585513 73.36870791 4.48011142 82.03411389 -0.65332031 92.03710938 C-1.31332031 92.03710938 -1.97332031 92.03710938 -2.65332031 92.03710938 C-2.65332031 92.69710937 -2.65332031 93.35710937 -2.65332031 94.03710938 C-7.77575293 97.01743381 -11.55455172 98.6594327 -17.65332031 98.03710938 C-19.25500008 96.43542961 -18.80216361 94.72657993 -18.8269043 92.50830078 C-18.84039413 91.54284332 -18.85388397 90.57738586 -18.86778259 89.58267212 C-18.87822098 88.52865204 -18.88865936 87.47463196 -18.89941406 86.38867188 C-18.93238853 84.16340806 -18.96559949 81.93814774 -18.99902344 79.71289062 C-19.04619028 76.20006039 -19.09053709 72.68724046 -19.13012695 69.17431641 C-19.17020322 65.78727216 -19.22169877 62.40053984 -19.27441406 59.01367188 C-19.28282822 57.9798941 -19.29124237 56.94611633 -19.2999115 55.88101196 C-19.3997343 49.90088632 -19.98957902 44.27771479 -21.19633484 38.41674805 C-22.97159954 29.17249678 -22.52524212 20.18360158 -17.65332031 12.03710938 C-17.10998047 10.95816406 -17.10998047 10.95816406 -16.55566406 9.85742188 C-14.13287427 5.37320755 -11.64815339 2.92145997 -7.10644531 0.63085938 C-4.61193797 0.02709327 -2.55866627 -0.02184438 0 0 Z " fill="#E4E9ED" transform="translate(185.6533203125,200.962890625)"/>
<path d="M0 0 C1.46373047 0.02707031 1.46373047 0.02707031 2.95703125 0.0546875 C3.69308594 0.07789063 4.42914063 0.10109375 5.1875 0.125 C4.506875 0.62 3.82625 1.115 3.125 1.625 C-7.30445269 10.50112995 -10.81791746 19.03603321 -13.11328125 32.234375 C-15.69075678 46.57608242 -23.04966845 58.83481757 -29.87939453 71.52758789 C-31.40026523 74.36745855 -32.79163063 77.0623919 -33.8125 80.125 C-34.4725 80.125 -35.1325 80.125 -35.8125 80.125 C-35.8125 80.785 -35.8125 81.445 -35.8125 82.125 C-37.22873216 82.17947047 -38.64558191 82.21800508 -40.0625 82.25 C-40.85140625 82.27320313 -41.6403125 82.29640625 -42.453125 82.3203125 C-45.15860796 82.09634868 -46.57514223 81.66577834 -48.8125 80.125 C-54.82657924 71.89056388 -56.08934255 62.55081386 -57.4296875 52.76123047 C-58.1529569 47.78045053 -59.05925614 42.83035534 -59.9375 37.875 C-60.2740512 35.95323237 -60.61002179 34.03136295 -60.9453125 32.109375 C-61.09645508 31.24376953 -61.24759766 30.37816406 -61.40332031 29.48632812 C-61.8859171 26.70131851 -62.35389651 23.91405796 -62.8125 21.125 C-58.41562462 22.59062513 -57.47504853 26.01711866 -55.5 29.9375 C-55.10627197 30.70054443 -54.71254395 31.46358887 -54.30688477 32.24975586 C-53.13101032 34.53605854 -51.9695304 36.82911245 -50.8125 39.125 C-50.3165332 40.10436523 -50.3165332 40.10436523 -49.81054688 41.10351562 C-48.1253088 44.43463377 -46.45872881 47.77444018 -44.8125 51.125 C-41.56312031 49.50031015 -40.79599447 46.00778272 -39.375 42.8125 C-36.21052538 35.91076152 -32.81594128 29.16964554 -29.1875 22.5 C-28.5234314 21.25802856 -28.5234314 21.25802856 -27.84594727 19.9909668 C-21.77735001 8.95501487 -13.61571536 -0.32808953 0 0 Z " fill="#DEE4E8" transform="translate(440.8125,201.875)"/>
<path d="M0 0 C0.66 0 1.32 0 2 0 C2.60480249 13.88805728 0.72070612 24.85486521 -8 36 C-16.47106485 45.21277099 -28.33930786 49.84522229 -40.59863281 50.61816406 C-44.88134727 50.93965036 -49.01752933 51.30747349 -53 53 C-55.6425144 56.44274338 -56.64302124 59.38278212 -57.8515625 63.53125 C-59.52943805 68.599119 -62.59327688 71.18112448 -67 74 C-67.83917969 74.57621094 -67.83917969 74.57621094 -68.6953125 75.1640625 C-72.32807429 76.4817083 -75.92139076 76.2075405 -79.75 76.125 C-80.54277344 76.11597656 -81.33554688 76.10695313 -82.15234375 76.09765625 C-84.10169281 76.07417012 -86.05088575 76.03830137 -88 76 C-88.40857512 70.81423886 -87.1962185 67.79297722 -84.75 63.25 C-81.78726435 57.6162511 -79.24696183 51.95285149 -77 46 C-76.33616532 44.33220333 -75.6701973 42.66525007 -75 41 C-74.67 41.99 -74.34 42.98 -74 44 C-73.34 44 -72.68 44 -72 44 C-72 43.34 -72 42.68 -72 42 C-71.360625 41.896875 -70.72125 41.79375 -70.0625 41.6875 C-69.381875 41.460625 -68.70125 41.23375 -68 41 C-67.67 40.01 -67.34 39.02 -67 38 C-64.57405008 37.10559923 -62.3100728 36.42091347 -59.8125 35.8125 C-58.8215332 35.54663086 -58.8215332 35.54663086 -57.81054688 35.27539062 C-53.79267531 34.24811645 -50.13940262 33.81330844 -46 34 C-45.505 33.01 -45.505 33.01 -45 32 C-43.14233398 31.58935547 -43.14233398 31.58935547 -40.74609375 31.3671875 C-39.46508789 31.24150391 -39.46508789 31.24150391 -38.15820312 31.11328125 C-37.26037109 31.03464844 -36.36253906 30.95601562 -35.4375 30.875 C-34.53580078 30.78863281 -33.63410156 30.70226562 -32.70507812 30.61328125 C-30.47070082 30.40048341 -28.23586385 30.19645533 -26 30 C-25.505 28.515 -25.505 28.515 -25 27 C-25 27.99 -25 28.98 -25 30 C-18.89910246 28.5955145 -18.89910246 28.5955145 -14 25 C-12.80151351 22.39122552 -11.85840383 19.73778797 -11 17 C-10.01 17 -9.02 17 -8 17 C-3.73733496 12.23049369 -1.72111964 6.04490801 0 0 Z " fill="#F1F3F5" transform="translate(136,223)"/>
<path d="M0 0 C0.74617584 0.0028299 1.49235168 0.00565979 2.26113892 0.00857544 C4.62478238 0.01969563 6.98803518 0.04478429 9.3515625 0.0703125 C10.96223408 0.08035288 12.57291165 0.08947688 14.18359375 0.09765625 C18.11473194 0.1196081 22.04558117 0.15408065 25.9765625 0.1953125 C23.9965625 1.1853125 23.9965625 1.1853125 21.9765625 2.1953125 C23.22495823 3.61339309 24.47535471 5.02971245 25.7265625 6.4453125 C26.42265625 7.23421875 27.11875 8.023125 27.8359375 8.8359375 C29.82243166 11.02543106 31.86757558 13.12432535 33.9765625 15.1953125 C33.3165625 15.1953125 32.6565625 15.1953125 31.9765625 15.1953125 C31.9765625 15.8553125 31.9765625 16.5153125 31.9765625 17.1953125 C29.9965625 17.8553125 28.0165625 18.5153125 25.9765625 19.1953125 C25.9765625 19.8553125 25.9765625 20.5153125 25.9765625 21.1953125 C18.3865625 20.8653125 10.7965625 20.5353125 2.9765625 20.1953125 C2.9765625 24.1553125 2.9765625 28.1153125 2.9765625 32.1953125 C2.6465625 32.1953125 2.3165625 32.1953125 1.9765625 32.1953125 C1.6465625 28.2353125 1.3165625 24.2753125 0.9765625 20.1953125 C-4.83340393 20.58920853 -7.60411777 21.16593275 -12.0234375 25.1953125 C-12.6834375 25.1953125 -13.3434375 25.1953125 -14.0234375 25.1953125 C-15.58973458 28.21502038 -16.89968914 31.28181664 -18.1484375 34.4453125 C-18.50164062 35.33734375 -18.85484375 36.229375 -19.21875 37.1484375 C-19.48429688 37.82390625 -19.74984375 38.499375 -20.0234375 39.1953125 C-20.3534375 39.1953125 -20.6834375 39.1953125 -21.0234375 39.1953125 C-22.69729256 28.94295027 -24.14930346 16.64740933 -19.0234375 7.1953125 C-13.86099701 0.63761783 -7.97572789 -0.11551186 0 0 Z " fill="#E9EDEF" transform="translate(229.0234375,200.8046875)"/>
<path d="M0 0 C3.1185456 2.6241562 4.39424408 5.66832504 6.03125 9.35546875 C6.30843872 9.97593582 6.58562744 10.59640289 6.87121582 11.235672 C7.45595492 12.5480112 8.03738731 13.86182812 8.61572266 15.17700195 C9.49061463 17.16616137 10.37517631 19.1507754 11.26171875 21.13476562 C19.50226744 39.64248068 19.50226744 39.64248068 19 45 C1.31947188 45.90411792 1.31947188 45.90411792 -4.45703125 41.58203125 C-8.61882434 37.31487631 -11.30961609 32.84442442 -13.8125 27.5 C-14.13669922 26.84902344 -14.46089844 26.19804687 -14.79492188 25.52734375 C-16.13953231 22.67688479 -17.00283387 20.40184286 -16.98046875 17.23046875 C-15.69472568 14.30553133 -14.23135457 13.42451781 -11.5 11.8125 C-8.14752456 9.97418564 -8.14752456 9.97418564 -6 7 C-5.34 7 -4.68 7 -4 7 C-3.71125 6.030625 -3.4225 5.06125 -3.125 4.0625 C-2 1 -2 1 0 0 Z " fill="#E9ECF0" transform="translate(136,254)"/>
<path d="M0 0 C2.75 1.375 2.75 1.375 5 3 C5.99 3.66 6.98 4.32 8 5 C9.03981957 11.59418912 6.30642317 16.58446428 3.5 22.4375 C3.07074219 23.35982422 2.64148438 24.28214844 2.19921875 25.23242188 C1.14454193 27.49411773 0.0780141 29.74935886 -1 32 C-1.66 32 -2.32 32 -3 32 C-3 32.66 -3 33.32 -3 34 C-3.62044189 34.13575439 -4.24088379 34.27150879 -4.88012695 34.41137695 C-7.6935793 35.03369165 -10.50293387 35.67287927 -13.3125 36.3125 C-14.77719727 36.63250977 -14.77719727 36.63250977 -16.27148438 36.95898438 C-17.67817383 37.28286133 -17.67817383 37.28286133 -19.11328125 37.61328125 C-20.40939331 37.90392456 -20.40939331 37.90392456 -21.73168945 38.20043945 C-24.20736501 39.07309444 -25.23730076 40.11206921 -27 42 C-27.66 42 -28.32 42 -29 42 C-29 42.66 -29 43.32 -29 44 C-29.66 44 -30.32 44 -31 44 C-30.51210148 38.24026291 -29.40572101 34.06191207 -26.8125 28.8125 C-26.18185552 27.51583703 -25.5516564 26.21895738 -24.921875 24.921875 C-24.60283203 24.27412109 -24.28378906 23.62636719 -23.95507812 22.95898438 C-22.43935383 19.85004476 -21.00407392 16.70650407 -19.5625 13.5625 C-19.06878906 12.49128906 -18.57507813 11.42007813 -18.06640625 10.31640625 C-17.53853516 9.16978516 -17.53853516 9.16978516 -17 8 C-16.01 8 -15.02 8 -14 8 C-13.95875 7.4225 -13.9175 6.845 -13.875 6.25 C-11.55217283 0.27701585 -5.74848576 -0.73162546 0 0 Z " fill="#D4DCE2" transform="translate(93,223)"/>
<path d="M0 0 C0 17.49 0 34.98 0 53 C-6 45.5 -6 45.5 -6 42 C-6.59683594 41.93167969 -7.19367188 41.86335938 -7.80859375 41.79296875 C-10.86029211 40.6887 -11.49412748 39.11047657 -13.0625 36.3125 C-13.57296875 35.40242188 -14.0834375 34.49234375 -14.609375 33.5546875 C-15.06828125 32.71164063 -15.5271875 31.86859375 -16 31 C-16.598125 29.989375 -17.19625 28.97875 -17.8125 27.9375 C-19.89800619 22.77861628 -20.40374817 18.01874086 -19.3125 12.5625 C-17.80894674 9.62699126 -16.89854768 9.30902153 -14 8 C-13.855625 7.38125 -13.71125 6.7625 -13.5625 6.125 C-11.74280831 -0.74939085 -6.12529958 0 0 0 Z " fill="#DCE2E7" transform="translate(189,201)"/>
<path d="M0 0 C-0.51669976 7.92272963 -3.52467951 15.18931488 -9.5625 20.5 C-11.25390625 21.84375 -11.25390625 21.84375 -13 23 C-13.55042969 23.37898438 -14.10085937 23.75796875 -14.66796875 24.1484375 C-18.31393869 25.47979671 -21.90460718 25.20790233 -25.75 25.125 C-26.54277344 25.11597656 -27.33554687 25.10695313 -28.15234375 25.09765625 C-30.10169281 25.07417012 -32.05088575 25.03830137 -34 25 C-34.12877442 20.34480463 -33.98124711 17.72655888 -31 14 C-29.67405895 13.63837971 -28.34061543 13.30271961 -27 13 C-26.731875 12.4225 -26.46375 11.845 -26.1875 11.25 C-23.47144137 6.10378364 -18.24803442 3.89202045 -12.9375 2.25 C-8.68452882 1.10422237 -4.42824558 0 0 0 Z " fill="#E0E6E9" transform="translate(82,274)"/>
<path d="M0 0 C3.72732134 4.53760859 4.13153833 7.95078013 4.0625 13.75 C4.05347656 14.73484375 4.04445313 15.7196875 4.03515625 16.734375 C4.02355469 17.48203125 4.01195312 18.2296875 4 19 C0 13 0 13 0 10 C-0.66 10 -1.32 10 -2 10 C-2 9.34 -2 8.68 -2 8 C-2.639375 7.896875 -3.27875 7.79375 -3.9375 7.6875 C-4.618125 7.460625 -5.29875 7.23375 -6 7 C-6.33 6.01 -6.66 5.02 -7 4 C-4.35261084 2.5393715 -3.10551666 2 0 2 C0 1.34 0 0.68 0 0 Z " fill="#D5DCE1" transform="translate(261,216)"/>
<path d="M0 0 C2.52259061 1.97420135 2.9929808 2.96745642 3.6875 6.1875 C3.790625 7.115625 3.89375 8.04375 4 9 C3.01 9.495 3.01 9.495 2 10 C1.34 9.67 0.68 9.34 0 9 C-0.33 9.66 -0.66 10.32 -1 11 C-1 10.34 -1 9.68 -1 9 C-2.32 8.67 -3.64 8.34 -5 8 C-2.25 1.125 -2.25 1.125 0 0 Z " fill="#E0E7EA" transform="translate(136,254)"/>
<path d="M0 0 C11.22 0 22.44 0 34 0 C32.02 0.99 32.02 0.99 30 2 C30 2.99 30 3.98 30 5 C28.9171875 4.51917969 27.834375 4.03835937 26.71875 3.54296875 C21.37675231 1.53971962 16.15341774 1.44233571 10.5 1.3125 C9.48679688 1.27833984 8.47359375 1.24417969 7.4296875 1.20898438 C4.95323583 1.12721474 2.47710651 1.0578375 0 1 C0 0.67 0 0.34 0 0 Z " fill="#F8FAFA" transform="translate(221,201)"/>
<path d="M0 0 C-4.625 4.875 -4.625 4.875 -8 6 C-10.1875 5.0625 -10.1875 5.0625 -12 4 C-12 3.01 -12 2.02 -12 1 C-10.37681021 0.63762737 -8.7513642 0.28534843 -7.125 -0.0625 C-6.22007812 -0.25972656 -5.31515625 -0.45695312 -4.3828125 -0.66015625 C-2 -1 -2 -1 0 0 Z " fill="#CDD6DC" transform="translate(259,267)"/>
<path d="M0 0 C0.99 0.33 1.98 0.66 3 1 C2.01 1.33 1.02 1.66 0 2 C-0.33 4.31 -0.66 6.62 -1 9 C-2.32 9 -3.64 9 -5 9 C-5.0825 9.61875 -5.165 10.2375 -5.25 10.875 C-6 13 -6 13 -8.0625 14.25 C-8.701875 14.4975 -9.34125 14.745 -10 15 C-8.00513584 9.19675881 -5.15844939 3.43896626 0 0 Z " fill="#EFF1F4" transform="translate(176,203)"/>
<path d="M0 0 C-9.41002278 2.11161731 -9.41002278 2.11161731 -14 3 C-14 3.66 -14 4.32 -14 5 C-15.28659163 6.37849103 -16.62913085 7.70529025 -18 9 C-19.11375 10.11375 -19.11375 10.11375 -20.25 11.25 C-20.8275 11.8275 -21.405 12.405 -22 13 C-21.10287224 8.19772789 -18.45316199 5.32437274 -15 2 C-10.01923629 -1.11297732 -5.18142675 -3.4542845 0 0 Z " fill="#F6F8F9" transform="translate(326,202)"/>
<path d="M0 0 C0.66666667 1.33333333 1.33333333 2.66666667 2 4 C2.53625 5.010625 3.0725 6.02125 3.625 7.0625 C5 10 5 10 5 13 C2.36 13 -0.28 13 -3 13 C-2.34 12.67 -1.68 12.34 -1 12 C0.5183512 8.204122 0.06687163 4.0122978 0 0 Z " fill="#DAE1E4" transform="translate(448,286)"/>
<path d="M0 0 C1.485 0.99 1.485 0.99 3 2 C2.34 2 1.68 2 1 2 C1 2.66 1 3.32 1 4 C2.98 3.67 4.96 3.34 7 3 C7.33 4.65 7.66 6.3 8 8 C6.25 8.75 6.25 8.75 4 9 C1.75 7.375 1.75 7.375 0 5 C-0.25 2.25 -0.25 2.25 0 0 Z " fill="#D7DFE3" transform="translate(431,288)"/>
<path d="M0 0 C0.33 0.99 0.66 1.98 1 3 C0.67 3.66 0.34 4.32 0 5 C0.99 4.67 1.98 4.34 3 4 C2.45773019 7.79588866 0.79872437 9.47211993 -2 12 C-2.17835515 7.45194365 -1.99785435 4.1205746 0 0 Z " fill="#D6DCE2" transform="translate(308,210)"/>
<path d="M0 0 C0.66 0 1.32 0 2 0 C2 4.29 2 8.58 2 13 C1.67 13 1.34 13 1 13 C0.67 11.02 0.34 9.04 0 7 C-0.99 7.495 -0.99 7.495 -2 8 C-1.47731534 5.23723823 -0.89130413 2.6739124 0 0 Z " fill="#FAFAF9" transform="translate(136,223)"/>
<path d="M0 0 C0.66 0.66 1.32 1.32 2 2 C1.60348083 3.31872662 1.18201309 4.62997101 0.75 5.9375 C0.40195312 7.03384766 0.40195312 7.03384766 0.046875 8.15234375 C-1 10 -1 10 -3.109375 10.75390625 C-4.04523438 10.87572266 -4.04523438 10.87572266 -5 11 C-5.33 9.68 -5.66 8.36 -6 7 C-5.38125 6.95875 -4.7625 6.9175 -4.125 6.875 C-3.42375 6.58625 -2.7225 6.2975 -2 6 C-0.6954344 3.00384054 -0.6954344 3.00384054 0 0 Z " fill="#CED5DB" transform="translate(430,215)"/>
<path d="M0 0 C-1.65 1.32 -3.3 2.64 -5 4 C-7.475 3.01 -7.475 3.01 -10 2 C-6.3558226 -0.4294516 -4.28758728 -0.16179575 0 0 Z " fill="#CAD1D5" transform="translate(446,202)"/>
<path d="M0 0 C2.4375 0.375 2.4375 0.375 5 1 C5.33 1.66 5.66 2.32 6 3 C5.34 3 4.68 3 4 3 C4 3.66 4 4.32 4 5 C4.66 5 5.32 5 6 5 C6.33 5.99 6.66 6.98 7 8 C3.70851757 6.86500606 3.0040131 6.00716624 1.25 2.875 C0.8375 1.92625 0.425 0.9775 0 0 Z " fill="#DEE2E5" transform="translate(248,272)"/>
<path d="M0 0 C1.32 0 2.64 0 4 0 C2.25 5.75 2.25 5.75 0 8 C0 5.36 0 2.72 0 0 Z " fill="#F9FBFB" transform="translate(187,278)"/>
<path d="M0 0 C0.99 0.66 1.98 1.32 3 2 C2.60196439 4.88575819 2.20990931 5.82189513 -0.0625 7.75 C-0.701875 8.1625 -1.34125 8.575 -2 9 C-2 8.01 -2 7.02 -2 6 C-1.01 5.67 -0.02 5.34 1 5 C1 4.01 1 3.02 1 2 C0.34 1.67 -0.32 1.34 -1 1 C-0.67 0.67 -0.34 0.34 0 0 Z " fill="#D4DBE1" transform="translate(267,263)"/>
<path d="M0 0 C1.9375 0.75 1.9375 0.75 4 2 C4.75 4.125 4.75 4.125 5 6 C3.35 5.67 1.7 5.34 0 5 C0 3.35 0 1.7 0 0 Z " fill="#CED5DD" transform="translate(179,266)"/>
<path d="M0 0 C2.96404505 2.80804268 5.44499019 5.18315774 7 9 C6.01 9 5.02 9 4 9 C0 2.25 0 2.25 0 0 Z " fill="#F7F9F9" transform="translate(275,209)"/>
<path d="M0 0 C0.6875 1.6875 0.6875 1.6875 1 4 C-0.4375 6.75 -0.4375 6.75 -2 9 C-2.6875 7.3125 -2.6875 7.3125 -3 5 C-1.5625 2.25 -1.5625 2.25 0 0 Z " fill="#F5F6F6" transform="translate(51,288)"/>
</svg>
